<svg xmlns="http://www.w3.org/2000/svg" xmlns:xlink="http://www.w3.org/1999/xlink" fill="none" version="1.1" width="48" height="48" viewBox="0 0 48 48"><g><g><path d="M5.5,36.5L5.5,11.5C5.5,9.84315,6.08579,8.42893,7.25736,7.25736C8.42893,6.08579,9.84315,5.5,11.5,5.5L36.5,5.5C38.1569,5.5,39.5711,6.08579,40.7426,7.25736C41.9142,8.42893,42.5,9.84315,42.5,11.5L42.5,36.5C42.5,38.1569,41.9142,39.5711,40.7426,40.7426C39.5711,41.9142,38.1569,42.5,36.5,42.5L11.5,42.5C9.84314,42.5,8.42893,41.9142,7.25736,40.7426C6.08579,39.5711,5.5,38.1569,5.5,36.5ZM8.5,36.5C8.5,37.3284,8.79289,38.0355,9.37868,38.6213C9.96447,39.2071,10.67157,39.5,11.5,39.5L36.5,39.5C37.3284,39.5,38.0355,39.2071,38.6213,38.6213C39.2071,38.0355,39.5,37.3284,39.5,36.5L39.5,11.5C39.5,10.67157,39.2071,9.96447,38.6213,9.37868C38.0355,8.79289,37.3284,8.5,36.5,8.5L11.5,8.5C10.67157,8.5,9.96447,8.79289,9.37868,9.37868C8.79289,9.96447,8.5,10.67157,8.5,11.5L8.5,36.5ZM17,16.25L17,31.75C17,32.5784,16.328400000000002,33.25,15.5,33.25C14.67157,33.25,14,32.5784,14,31.75L14,16.25C14,15.42157,14.67157,14.75,15.5,14.75C16.328400000000002,14.75,17,15.42157,17,16.25ZM34,16.25L34,31.75C34,32.5784,33.3284,33.25,32.5,33.25C31.6716,33.25,31,32.5784,31,31.75L31,16.25C31,15.42157,31.6716,14.75,32.5,14.75C33.3284,14.75,34,15.42157,34,16.25ZM24,17.5C25.1046,17.5,26,18.395400000000002,26,19.5C26,20.604599999999998,25.1046,21.5,24,21.5C22.8954,21.5,22,20.604599999999998,22,19.5C22,18.395400000000002,22.8954,17.5,24,17.5ZM24,26.5C25.1046,26.5,26,27.3954,26,28.5C26,29.6046,25.1046,30.5,24,30.5C22.8954,30.5,22,29.6046,22,28.5C22,27.3954,22.8954,26.5,24,26.5Z" fill="#656A72" fill-opacity="1"/></g></g></svg>