<svg xmlns="http://www.w3.org/2000/svg" xmlns:xlink="http://www.w3.org/1999/xlink" fill="none" version="1.1" width="20" height="20" viewBox="0 0 20 20"><g><g><path d="M10.625003015441894,4.8958330154418945L10.625003015441894,9.375003015441894L15.104133015441894,9.375003015441894C15.449333015441894,9.375003015441894,15.729133015441894,9.654833015441895,15.729133015441894,10.000003015441894C15.729133015441894,10.345163015441894,15.449333015441894,10.625003015441894,15.104133015441894,10.625003015441894L10.625003015441894,10.625003015441894L10.625003015441894,15.104133015441894C10.625003015441894,15.449333015441894,10.345163015441894,15.729133015441894,10.000003015441894,15.729133015441894C9.654833015441895,15.729133015441894,9.375003015441894,15.449333015441894,9.375003015441894,15.104133015441894L9.375003015441894,10.625003015441894L4.8958330154418945,10.625003015441894C4.550654015441895,10.625003015441894,4.2708330154418945,10.345163015441894,4.2708330154418945,10.000003015441894C4.2708330154418945,9.654833015441895,4.550654015441895,9.375003015441894,4.8958330154418945,9.375003015441894L9.375003015441894,9.375003015441894L9.375003015441894,4.8958330154418945C9.375003015441894,4.550654015441895,9.654833015441895,4.2708330154418945,10.000003015441894,4.2708330154418945C10.345163015441894,4.2708330154418945,10.625003015441894,4.550654015441895,10.625003015441894,4.8958330154418945Z" fill="#656A72" fill-opacity="1"/></g></g></svg>